<svg xmlns="http://www.w3.org/2000/svg" width="77" height="113" viewBox="0 0 77 113" fill="none"><g clip-path="url(#clip0_998_4353)"><mask id="mask0_998_4353" style="mask-type:luminance" maskUnits="userSpaceOnUse" x="-65" y="0" width="164" height="122"><path d="M98.0737 0H-64.0316V121.071H98.0737V0Z" fill="white"></path></mask><g mask="url(#mask0_998_4353)"><mask id="mask1_998_4353" style="mask-type:luminance" maskUnits="userSpaceOnUse" x="-51" y="-29" width="172" height="171"><path d="M-50.658 -28.6536H120.363V141.654H-50.658V-28.6536Z" fill="white"></path></mask><g mask="url(#mask1_998_4353)"><path d="M1.43457 26.8511C1.43457 26.4064 1.61208 25.9794 1.92818 25.6654C2.58471 25.0149 3.64488 25.0149 4.3014 25.6654L19.1689 40.4708C19.8262 41.1254 19.8262 42.1876 19.1689 42.843C18.5116 43.4976 17.4457 43.4976 16.7884 42.843L1.92818 28.036C1.61208 27.722 1.43457 27.2958 1.43457 26.8511Z" fill="#E8EDEA"></path><path d="M21.8104 2.94202C22.7117 2.71037 23.6317 3.25116 23.8635 4.1487L28.9114 24.2587C29.0233 24.6897 28.9592 25.1465 28.7315 25.5307C28.5037 25.9141 28.1333 26.1918 27.6997 26.3032C26.7992 26.534 25.8792 25.994 25.6466 25.0965L20.5987 4.98652C20.3669 4.08897 20.9099 3.17287 21.8104 2.94202Z" fill="#E8EDEA"></path><path d="M49.9551 13.1637V33.8346C49.9551 34.7596 49.2022 35.5102 48.2733 35.5102C47.3428 35.5102 46.5898 34.7596 46.5898 33.8346V13.1637C46.5898 12.2387 47.3428 11.488 48.2733 11.488C49.2022 11.488 49.9551 12.2387 49.9551 13.1637Z" fill="#E8EDEA"></path><path d="M27.3706 37.5806L31.0901 37.0439L32.7476 33.6926L34.4052 37.0439L38.1247 37.5806L35.4321 40.195L36.0716 43.882L32.7468 42.1386L29.4237 43.882L30.0632 40.195L27.3706 37.5806Z" fill="#E8EDEA"></path><path d="M37.6367 19.4392L36.502 16.8918L33.7413 16.3809L35.8284 14.5124L35.4669 11.739L37.8977 13.1386L40.4306 11.94L39.8422 14.6714L41.7688 16.6989L38.9838 16.9838L37.6367 19.4392Z" fill="#E8EDEA"></path><path d="M12.0824 13.8506L14.1111 15.7692L16.854 15.2001L15.6422 17.7128L17.0469 20.135L14.2619 19.7661L12.3855 21.8445L11.8725 19.0954L9.31445 17.9565L11.7801 16.6239L12.0824 13.8506Z" fill="#E8EDEA"></path></g></g></g><defs><clipPath id="clip0_998_4353"><rect width="77" height="113" fill="white"></rect></clipPath></defs></svg>