<svg xmlns="http://www.w3.org/2000/svg" width="125" height="137" viewBox="0 0 125 137" fill="none"><g clip-path="url(#clip0_998_4405)"><mask id="mask0_998_4405" style="mask-type:luminance" maskUnits="userSpaceOnUse" x="-55" y="-11" width="202" height="188"><path d="M83.8354 -10.9358L-54.7355 73.1846L8.09145 176.679L146.662 92.5585L83.8354 -10.9358Z" fill="white"></path></mask><g mask="url(#mask0_998_4405)"><mask id="mask1_998_4405" style="mask-type:luminance" maskUnits="userSpaceOnUse" x="-59" y="-47" width="236" height="235"><path d="M-58.1724 41.751L88.0199 -46.996L176.396 98.5859L30.2042 187.333L-58.1724 41.751Z" fill="white"></path></mask><g mask="url(#mask1_998_4405)"><path d="M79.474 66.1291L79.4747 66.1287L79.4629 66.1264C78.4764 65.8868 77.4353 66.0117 76.5316 66.4801C75.6277 66.9467 74.9243 67.7249 74.549 68.6685L73.2121 74.0869C72.954 75.1378 73.1224 76.2461 73.6824 77.1686C74.2423 78.091 75.1483 78.7525 76.1993 79.0077L76.3491 79.0452C77.0502 79.2192 77.7852 79.2007 78.4789 78.994C79.1726 78.7872 79.7989 78.3975 80.2904 77.8669C81.0245 75.9322 81.9983 73.2722 82.4155 71.9804C82.82 70.6725 82.704 69.2615 82.0909 68.0407C81.5113 67.0782 80.5697 66.3893 79.474 66.1291ZM91.5933 72.7635C91.1082 72.0363 90.3655 71.5203 89.5138 71.3169L89.4999 71.3253C88.7428 71.1495 87.9474 71.2311 87.2392 71.5561C86.53 71.881 85.9493 72.4317 85.5884 73.1211C84.9731 74.994 83.7171 78.3559 83.4107 79.1491C83.2854 80.0938 83.508 81.0493 84.0384 81.8387C84.5688 82.628 85.3692 83.1968 86.2911 83.4379L86.5677 83.5061C87.2759 83.6606 88.0141 83.6147 88.6984 83.3721C89.3831 83.1301 89.9867 82.7014 90.4404 82.1352L92.0732 75.5174C92.0841 75.4229 92.1031 75.3292 92.1299 75.2374C92.2697 74.3745 92.0784 73.4907 91.5933 72.7635ZM98.7701 75.9124C97.6776 75.6418 96.521 75.8218 95.5587 76.4107L95.2382 76.5467L93.8158 82.3116C93.6924 83.2656 93.9272 84.2288 94.4738 85.0168C95.0216 85.8051 95.8439 86.3615 96.781 86.5792L96.9924 86.6369C97.7606 86.8136 98.5658 86.7515 99.2991 86.4584C100.032 86.1653 100.661 85.6562 101.097 84.9975L101.096 84.9983L101.86 81.114C102.146 80.0129 101.981 78.8437 101.402 77.8678C100.822 76.8915 99.8746 76.1871 98.7701 75.9124ZM37.4488 82.7405C35.2639 82.4495 33.8508 83.2487 33.1302 85.1762C32.2199 87.6503 33.8457 89.6631 35.8529 90.5219C44.5558 94.3354 46.9803 97.5498 49.2372 101.364C53.2393 108.119 57.7337 112.038 62.1333 114.21C62.2411 114.217 62.3468 114.235 62.4508 114.262L62.4501 114.263C62.5197 114.279 67.1943 115.51 70.7796 113C73.3472 111.196 74.8357 107.861 75.2133 103.084C75.3063 102.176 76.1074 101.506 77.0183 101.574C77.9281 101.642 78.6151 102.422 78.5648 103.333C78.0864 109.161 76.1172 113.327 72.6597 115.74L72.0486 116.111L71.3647 116.526C75.7087 116.669 80.0247 115.731 83.9251 113.801C91.9123 109.724 97.6217 102.251 99.443 93.4915L99.4437 93.491L99.4623 93.392L100.181 89.7115C98.8765 90.1482 97.4775 90.21 96.1432 89.8878L95.9617 89.8309C93.8361 89.3206 92.0608 87.8753 91.1342 85.9007C89.4948 86.9035 87.5256 87.216 85.6591 86.7732L85.5675 86.7504L85.4798 86.7357C83.0187 86.1288 81.053 84.2902 80.2865 81.8794C78.7884 82.548 77.1112 82.7013 75.5198 82.3133L75.3926 82.2819C73.4676 81.8208 71.8102 80.6118 70.7852 78.9235C69.7607 77.2358 69.4525 75.2068 69.9317 73.2862L75.7403 49.8416C76.0113 48.748 75.836 47.5939 75.253 46.6335C74.6695 45.6723 73.7265 44.9843 72.6312 44.72C71.5137 44.4504 70.332 44.6437 69.3564 45.2577C68.3805 45.8681 67.6955 46.8514 67.4622 47.9759C65.5263 57.0808 60.5823 78.8523 56.326 84.6021C55.8325 85.2823 55.2515 85.8965 54.5979 86.4255C57.0022 88.6493 58.2721 91.8376 58.0577 95.1082C58.0035 96.0107 57.2451 96.7091 56.34 96.691C55.4345 96.6723 54.7098 95.9424 54.6993 95.0395L54.6995 95.0384C54.857 88.9734 50.2795 87.6448 50.0796 87.5905C50.0263 87.5728 49.9737 87.5519 49.9235 87.5285C48.3246 87.1111 46.7914 86.4754 45.3694 85.6371C42.9288 84.2001 40.245 83.2186 37.4488 82.7405ZM46.3399 103.094C44.6559 100.254 42.9254 97.3241 34.4954 93.6197C30.42 91.8201 28.5628 87.8705 29.9952 84.0511C31.2585 80.6669 34.2194 78.9468 37.9304 79.4493C41.111 79.9764 44.1672 81.0764 46.9494 82.698C50.7152 84.6373 51.7788 85.0586 53.6153 82.5718C56.7796 78.33 61.1321 61.5319 64.1666 47.2516C64.5879 45.2575 65.7937 43.5123 67.5137 42.4097C69.2329 41.3056 71.3212 40.9377 73.3106 41.3862C75.3001 41.8347 77.0212 43.0626 78.0891 44.7937C79.1582 46.5251 79.4822 48.6144 78.991 50.5933L75.9217 63.131C77.5709 62.5302 79.3754 62.5178 81.0266 63.098C82.6785 63.6777 84.0745 64.8122 84.9782 66.3087C85.3885 66.9954 85.6785 67.7466 85.8351 68.5325C87.6525 67.687 89.7472 67.6778 91.5669 68.506C93.386 69.3345 94.7473 70.9178 95.291 72.8397C97.0245 72.2387 98.9154 72.2796 100.615 72.9576C102.316 73.6355 103.711 74.9016 104.547 76.5271C105.382 78.153 105.601 80.0275 105.163 81.805L104.386 85.795L104.364 85.936L102.793 93.9677C101.008 103.054 95.4144 110.956 87.4246 115.677L87.4257 115.677C86.7993 116.057 86.1607 116.416 85.4918 116.773C76.7029 121.411 58.5771 123.738 46.3399 103.094Z" fill="#E8EDEA"></path></g></g></g><defs><clipPath id="clip0_998_4405"><rect width="77" height="113" fill="white" transform="translate(0 39.957) rotate(-31.2601)"></rect></clipPath></defs></svg>